<svg width="250" height="150" viewBox="0 0 250 150" fill="none" xmlns="http://www.w3.org/2000/svg">
<path d="M63.75 121.363C41.5121 124.89 29.5786 127.711 9.16669 134.113C27.4279 127.29 38.1168 123.031 62.0834 117.613C78.2512 115.226 87.4759 114.266 104.167 113.113C104.167 113.113 130.886 111.733 149.583 113.113C168.281 114.493 177.982 115.868 193.75 119.488C215.153 124.658 225.53 127.814 240.833 134.113C210.188 126.297 199.016 123.99 183.75 121.363C170.438 119.007 162.958 118.156 149.583 117.613C131.722 117.097 121.776 117.086 104.167 117.613C88.0975 118.701 79.2396 119.512 63.75 121.363Z" fill="#333333"/>
<path d="M103.75 83.259L104.581 109.798C104.583 109.84 104.544 109.875 104.498 109.875H83.8225C83.7809 109.875 83.75 109.874 83.7442 109.837C83.54 108.472 77.9243 70.8818 78.3334 71.25C78.75 71.625 79.5834 71.625 81.25 71.25C82.8952 70.8798 85.7167 68.6118 87.4334 66.0985C87.465 66.0522 87.5392 66.0506 87.5742 66.0948C90.2817 69.5346 93.9059 71.4716 94.5834 71.625C95.2667 71.7796 97.43 72.0968 99.99 71.2534C99.9967 71.2511 100.003 71.2481 100.009 71.2444C102.463 69.698 103.828 68.5607 106.182 66.0721C106.217 66.0355 106.281 66.0371 106.313 66.0754C108.438 68.5956 109.798 69.7525 112.492 71.2454C112.498 71.2484 112.503 71.251 112.509 71.2528C114.969 71.9848 116.201 71.8109 118.326 71.252C118.331 71.2507 118.336 71.249 118.34 71.2469C121.348 69.8861 122.863 68.829 124.93 66.0927C124.963 66.0488 125.037 66.0486 125.07 66.0925C127.136 68.8216 128.496 70.1774 132.083 71.25C134.02 71.7983 135.264 71.6813 137.073 71.2524C137.08 71.2508 137.087 71.2484 137.093 71.2454C140.377 69.6071 141.928 68.5123 143.688 66.0853C143.719 66.0432 143.788 66.0394 143.823 66.0776C146.538 68.939 148.238 70.1624 151.667 71.25C153.616 71.9015 154.711 71.8532 156.658 71.2529C156.663 71.251 156.669 71.2484 156.675 71.2452C159.639 69.5578 161.184 68.4875 163.254 66.092C163.291 66.0492 163.365 66.053 163.395 66.1004C165.042 68.7322 169.433 71.4093 172.837 71.9869C172.882 71.9945 172.911 72.0323 172.904 72.0726L166.261 109.812C166.255 109.848 166.22 109.875 166.179 109.875H145.503C145.456 109.875 145.418 109.84 145.42 109.797L146.667 83.25C146.632 82.371 145.993 82.0103 145 81.75C144.01 81.4905 105.618 81.7485 105.418 81.75C105.412 81.75 105.413 81.7508 105.408 81.7523C104.253 81.9953 103.965 82.374 103.753 83.241C103.751 83.247 103.75 83.253 103.75 83.259Z" fill="#F2C94C"/>
<path d="M180.833 52.5H69.1667C68.9366 52.5 68.75 52.6679 68.75 52.875V63.2701C68.75 63.3388 68.7723 63.4081 68.812 63.4667C74.9997 72.5864 80.7552 71.8077 87.1467 63.8225C87.3175 63.6094 87.6808 63.6151 87.8475 63.831C95.3392 73.5738 99.3392 72.1649 105.892 63.8339C106.062 63.617 106.431 63.6232 106.595 63.844C113.11 72.6075 117.212 72.0576 124.652 63.7661C124.825 63.5728 125.164 63.5799 125.328 63.7802C131.883 71.8131 136.035 71.9746 143.822 63.7426C143.996 63.5582 144.326 63.568 144.489 63.761C152.337 73.0821 156.393 71.5786 162.974 63.8024C163.148 63.5963 163.504 63.6061 163.667 63.8197C169.997 72.1273 175.869 71.9385 181.195 63.4622C181.231 63.4063 181.25 63.3413 181.25 63.2769V52.875C181.25 52.6679 181.063 52.5 180.833 52.5Z" fill="#333333"/>
<path d="M95.8334 22.5H87.0834L68.3334 50.25H87.0834L95.8334 22.5Z" fill="#F2C94C"/>
<path d="M110 22.5H98.5625L89.1667 50.25H105.098L110 22.5Z" fill="#F2C94C"/>
<path d="M124.167 22.5H112.917L107.5 50.25H123.75L124.167 22.5Z" fill="#F2C94C"/>
<path d="M125.833 50.25V22.5H136.389L141.667 50.25H125.833Z" fill="#F2C94C"/>
<path d="M143.422 50.25L139.167 22.5H151.082L159.167 50.25H143.422Z" fill="#F2C94C"/>
<path d="M162.77 22.5H153.333L162.77 50.25H182.5L162.77 22.5Z" fill="#F2C94C"/>
<path d="M88.3334 20.625V17.25L161.667 17.625V20.625H88.3334Z" fill="#333333"/>
<path d="M67.4012 125.531L66.85 132.833C66.5339 132.787 65.8503 132.706 64.7993 132.591C64.0815 132.529 63.2954 132.491 62.4409 132.476L62.2486 134.679C63.1885 134.702 64.7224 134.683 66.85 134.621C66.756 134.906 66.6065 135.436 66.4014 136.214C66.2818 136.682 66.175 137.224 66.081 137.839C65.8332 137.786 65.2137 137.716 64.2224 137.632C63.761 137.609 63.0774 137.602 62.1717 137.609L62.0435 140.182C62.6844 140.174 63.8636 140.124 65.5811 140.032C65.9059 140.009 66.4399 139.916 67.1833 139.755C67.1149 139.993 66.9569 140.566 66.709 141.473C66.5894 141.943 66.4442 142.535 66.2733 143.25H54.8017L54.43 134.206C54.3616 132.137 54.195 129.246 53.9301 125.531H67.4012ZM83.1333 139.755C83.0478 140.063 82.8897 140.643 82.659 141.497C82.5394 141.997 82.4369 142.581 82.3514 143.25H70.7517C70.7089 141.443 70.6021 138.467 70.4312 134.321C70.3201 132.199 70.1194 129.269 69.8288 125.531H78.724L77.9934 140.228C78.8224 140.228 80.0656 140.147 81.7234 139.985C82.0651 139.955 82.5351 139.878 83.1333 139.755ZM104.428 125.531C104.283 127.423 104.091 130.503 103.851 134.771C103.783 136.802 103.663 139.628 103.493 143.25H96.9559L96.8142 139.374C96.6609 139.421 96.3492 139.532 95.8792 139.709C95.3234 139.924 94.93 140.097 94.7 140.228L94.0334 138.809C93.8967 138.501 93.67 138.067 93.3542 137.505L93.2259 143.25H86.0092L85.6375 134.771C85.5609 132.564 85.3684 129.485 85.0609 125.531H94.0592L93.4567 136.444C94.08 136.498 94.6784 136.514 95.2509 136.49C95.6184 136.483 96.1142 136.452 96.7375 136.398L96.0842 125.531H104.428ZM122.48 143.25H115.469L114.995 141.715C114.798 141.785 114.307 142.019 113.521 142.42C113.017 142.712 112.457 143.1 111.842 143.585L111.111 142.189C110.966 141.912 110.757 141.524 110.483 141.023L109.791 143.25H106.074C106.621 141.35 107.467 138.217 108.612 133.849C109.313 130.926 109.898 128.154 110.368 125.531H118.071C118.31 126.739 118.964 129.55 120.032 133.963C120.622 136.271 121.438 139.367 122.48 143.25ZM114.393 139.466C114.247 139.059 113.991 138.398 113.623 137.483C113.401 136.975 113.063 136.275 112.611 135.382C112.414 135.829 112.107 136.559 111.688 137.575C111.457 138.159 111.183 138.955 110.868 139.962C111.124 139.962 111.705 139.916 112.611 139.824C113.158 139.755 113.752 139.636 114.393 139.466Z" fill="#333333"/>
<path d="M138.158 125.531C138.038 127.084 137.872 129.796 137.658 133.664C137.529 136.509 137.423 139.781 137.338 143.481C136.218 142.688 134.513 141.508 132.223 139.939C131.232 139.316 129.753 138.382 127.788 137.136L127.66 143.25H123.533C123.465 141.688 123.307 138.743 123.058 134.413C122.845 130.906 122.628 127.946 122.405 125.531H128.839L133.608 129.592C133.608 128.661 133.59 127.931 133.556 127.4C133.531 126.931 133.479 126.308 133.403 125.531H138.158ZM157.722 134.01C157.722 136.725 156.944 139.02 155.389 140.896C153.758 142.858 151.668 143.838 149.122 143.838C146.498 143.838 144.375 142.85 142.752 140.874C141.222 139.012 140.457 136.725 140.457 134.01C140.457 131.11 141.29 128.834 142.957 127.181C144.528 125.627 146.583 124.851 149.122 124.851C151.617 124.851 153.65 125.631 155.223 127.192C156.889 128.854 157.722 131.126 157.722 134.01ZM151.557 136.04C151.557 133.902 150.753 132.833 149.148 132.833C147.583 132.833 146.802 133.91 146.802 136.063C146.802 136.924 147.007 137.729 147.417 138.474C147.878 139.313 148.447 139.732 149.122 139.732C149.779 139.732 150.361 139.305 150.865 138.452C151.326 137.675 151.557 136.87 151.557 136.04ZM177.376 125.531L177.082 132.995C176.996 135.125 176.953 138.347 176.953 142.662C174.766 143.369 172.536 143.723 170.263 143.723C167.46 143.723 165.328 143.219 163.867 142.212C162.628 141.358 161.752 140.028 161.239 138.221C160.94 137.183 160.658 135.283 160.393 132.522C160.137 129.969 159.979 127.639 159.919 125.531H168.186C168.143 126.547 168.093 128.2 168.033 130.492C168.007 131.768 168.015 133.579 168.058 135.925C168.067 137.709 168.238 138.913 168.571 139.535C168.921 140.197 169.622 140.527 170.673 140.527C170.972 140.527 171.305 140.451 171.673 140.296C171.673 138.712 171.621 136.194 171.518 132.741C171.433 131.011 171.275 128.608 171.044 125.531H177.376ZM195.39 125.531L195.018 132.788C194.685 132.741 194.151 132.683 193.416 132.614C192.963 132.591 192.228 132.568 191.212 132.545C191.16 132.999 191.07 134.095 190.943 135.832C190.848 137.517 190.694 139.989 190.481 143.25H184.278C184.208 141.697 184.081 139.255 183.893 135.925C183.808 134.771 183.718 133.645 183.623 132.545L181.598 132.614L179.765 132.788L179.445 125.531H195.39Z" fill="#F2C94C"/>
<path d="M118.333 86.8125L134.252 96.819L127.539 98.0167L132.013 105.409L128.577 106.991L124.076 99.5468L118.953 103.711L118.333 86.8125Z" fill="#333333"/>
</svg>
